<mxfile host="app.diagrams.net" modified="2021-12-17T11:34:37.822Z" agent="5.0 (Macintosh; Intel Mac OS X 10_14_6) AppleWebKit/537.36 (KHTML, like Gecko) Chrome/95.0.4638.69 Safari/537.36" etag="PH55YuqbYzwuNKlpMp3R" version="15.9.6" type="github">
  <diagram id="C5RBs43oDa-KdzZeNtuy" name="Page-1">
    <mxGraphModel dx="1151" dy="600" grid="0" gridSize="10" guides="1" tooltips="1" connect="1" arrows="1" fold="1" page="1" pageScale="1" pageWidth="827" pageHeight="1169" math="0" shadow="0">
      <root>
        <mxCell id="WIyWlLk6GJQsqaUBKTNV-0" />
        <mxCell id="WIyWlLk6GJQsqaUBKTNV-1" parent="WIyWlLk6GJQsqaUBKTNV-0" />
        <mxCell id="R6aRdFvyjho4X6qCEHCf-2" value="" style="edgeStyle=orthogonalEdgeStyle;rounded=0;orthogonalLoop=1;jettySize=auto;html=1;" edge="1" parent="WIyWlLk6GJQsqaUBKTNV-1" source="WIyWlLk6GJQsqaUBKTNV-3" target="R6aRdFvyjho4X6qCEHCf-1">
          <mxGeometry relative="1" as="geometry" />
        </mxCell>
        <mxCell id="R6aRdFvyjho4X6qCEHCf-4" value="" style="edgeStyle=orthogonalEdgeStyle;rounded=0;orthogonalLoop=1;jettySize=auto;html=1;" edge="1" parent="WIyWlLk6GJQsqaUBKTNV-1" source="WIyWlLk6GJQsqaUBKTNV-3" target="R6aRdFvyjho4X6qCEHCf-3">
          <mxGeometry relative="1" as="geometry" />
        </mxCell>
        <mxCell id="R6aRdFvyjho4X6qCEHCf-6" value="" style="edgeStyle=orthogonalEdgeStyle;rounded=0;orthogonalLoop=1;jettySize=auto;html=1;" edge="1" parent="WIyWlLk6GJQsqaUBKTNV-1" source="WIyWlLk6GJQsqaUBKTNV-3" target="R6aRdFvyjho4X6qCEHCf-5">
          <mxGeometry relative="1" as="geometry" />
        </mxCell>
        <mxCell id="R6aRdFvyjho4X6qCEHCf-24" value="" style="edgeStyle=orthogonalEdgeStyle;rounded=0;orthogonalLoop=1;jettySize=auto;html=1;" edge="1" parent="WIyWlLk6GJQsqaUBKTNV-1" source="WIyWlLk6GJQsqaUBKTNV-3" target="R6aRdFvyjho4X6qCEHCf-23">
          <mxGeometry relative="1" as="geometry" />
        </mxCell>
        <mxCell id="R6aRdFvyjho4X6qCEHCf-31" value="" style="edgeStyle=orthogonalEdgeStyle;rounded=0;orthogonalLoop=1;jettySize=auto;html=1;" edge="1" parent="WIyWlLk6GJQsqaUBKTNV-1" source="WIyWlLk6GJQsqaUBKTNV-3" target="R6aRdFvyjho4X6qCEHCf-30">
          <mxGeometry relative="1" as="geometry" />
        </mxCell>
        <mxCell id="R6aRdFvyjho4X6qCEHCf-36" value="" style="edgeStyle=orthogonalEdgeStyle;rounded=0;orthogonalLoop=1;jettySize=auto;html=1;fontSize=10;" edge="1" parent="WIyWlLk6GJQsqaUBKTNV-1" source="WIyWlLk6GJQsqaUBKTNV-3" target="R6aRdFvyjho4X6qCEHCf-35">
          <mxGeometry relative="1" as="geometry" />
        </mxCell>
        <mxCell id="R6aRdFvyjho4X6qCEHCf-40" value="" style="edgeStyle=orthogonalEdgeStyle;rounded=0;orthogonalLoop=1;jettySize=auto;html=1;fontSize=10;" edge="1" parent="WIyWlLk6GJQsqaUBKTNV-1" source="WIyWlLk6GJQsqaUBKTNV-3" target="R6aRdFvyjho4X6qCEHCf-39">
          <mxGeometry relative="1" as="geometry" />
        </mxCell>
        <mxCell id="WIyWlLk6GJQsqaUBKTNV-3" value="Client" style="rounded=1;whiteSpace=wrap;html=1;fontSize=12;glass=0;strokeWidth=1;shadow=0;" parent="WIyWlLk6GJQsqaUBKTNV-1" vertex="1">
          <mxGeometry x="52" y="91" width="120" height="40" as="geometry" />
        </mxCell>
        <mxCell id="R6aRdFvyjho4X6qCEHCf-1" value="fast_open" style="rounded=1;whiteSpace=wrap;html=1;fontSize=12;glass=0;strokeWidth=1;shadow=0;" vertex="1" parent="WIyWlLk6GJQsqaUBKTNV-1">
          <mxGeometry x="208" y="144" width="120" height="40" as="geometry" />
        </mxCell>
        <mxCell id="R6aRdFvyjho4X6qCEHCf-3" value="timewait" style="rounded=1;whiteSpace=wrap;html=1;fontSize=12;glass=0;strokeWidth=1;shadow=0;" vertex="1" parent="WIyWlLk6GJQsqaUBKTNV-1">
          <mxGeometry x="188" y="43" width="120" height="40" as="geometry" />
        </mxCell>
        <mxCell id="R6aRdFvyjho4X6qCEHCf-5" value="Initcwd" style="rounded=1;whiteSpace=wrap;html=1;fontSize=12;glass=0;strokeWidth=1;shadow=0;" vertex="1" parent="WIyWlLk6GJQsqaUBKTNV-1">
          <mxGeometry x="409" y="144" width="120" height="40" as="geometry" />
        </mxCell>
        <mxCell id="R6aRdFvyjho4X6qCEHCf-15" value="" style="edgeStyle=orthogonalEdgeStyle;rounded=0;orthogonalLoop=1;jettySize=auto;html=1;entryX=0.5;entryY=1;entryDx=0;entryDy=0;" edge="1" parent="WIyWlLk6GJQsqaUBKTNV-1" source="R6aRdFvyjho4X6qCEHCf-10" target="R6aRdFvyjho4X6qCEHCf-1">
          <mxGeometry relative="1" as="geometry">
            <mxPoint x="471" y="277" as="targetPoint" />
          </mxGeometry>
        </mxCell>
        <mxCell id="R6aRdFvyjho4X6qCEHCf-19" value="" style="edgeStyle=orthogonalEdgeStyle;rounded=0;orthogonalLoop=1;jettySize=auto;html=1;" edge="1" parent="WIyWlLk6GJQsqaUBKTNV-1" source="R6aRdFvyjho4X6qCEHCf-10" target="R6aRdFvyjho4X6qCEHCf-11">
          <mxGeometry relative="1" as="geometry">
            <mxPoint x="333" y="260" as="targetPoint" />
          </mxGeometry>
        </mxCell>
        <mxCell id="R6aRdFvyjho4X6qCEHCf-22" value="" style="edgeStyle=orthogonalEdgeStyle;rounded=0;orthogonalLoop=1;jettySize=auto;html=1;entryX=0.5;entryY=0;entryDx=0;entryDy=0;" edge="1" parent="WIyWlLk6GJQsqaUBKTNV-1" source="R6aRdFvyjho4X6qCEHCf-10" target="R6aRdFvyjho4X6qCEHCf-20">
          <mxGeometry relative="1" as="geometry">
            <mxPoint x="498" y="263" as="targetPoint" />
          </mxGeometry>
        </mxCell>
        <mxCell id="R6aRdFvyjho4X6qCEHCf-28" value="" style="edgeStyle=orthogonalEdgeStyle;rounded=0;orthogonalLoop=1;jettySize=auto;html=1;entryX=0.5;entryY=0;entryDx=0;entryDy=0;" edge="1" parent="WIyWlLk6GJQsqaUBKTNV-1" source="R6aRdFvyjho4X6qCEHCf-10" target="R6aRdFvyjho4X6qCEHCf-29">
          <mxGeometry relative="1" as="geometry">
            <mxPoint x="670" y="236" as="targetPoint" />
          </mxGeometry>
        </mxCell>
        <mxCell id="R6aRdFvyjho4X6qCEHCf-33" value="" style="edgeStyle=orthogonalEdgeStyle;rounded=0;orthogonalLoop=1;jettySize=auto;html=1;entryX=0.442;entryY=0.05;entryDx=0;entryDy=0;entryPerimeter=0;" edge="1" parent="WIyWlLk6GJQsqaUBKTNV-1" source="R6aRdFvyjho4X6qCEHCf-10" target="R6aRdFvyjho4X6qCEHCf-34">
          <mxGeometry relative="1" as="geometry">
            <mxPoint x="761" y="236" as="targetPoint" />
          </mxGeometry>
        </mxCell>
        <mxCell id="R6aRdFvyjho4X6qCEHCf-10" value="Server" style="rounded=1;whiteSpace=wrap;html=1;fontSize=12;glass=0;strokeWidth=1;shadow=0;" vertex="1" parent="WIyWlLk6GJQsqaUBKTNV-1">
          <mxGeometry x="58" y="216" width="120" height="40" as="geometry" />
        </mxCell>
        <mxCell id="R6aRdFvyjho4X6qCEHCf-11" value="backlog" style="rounded=1;whiteSpace=wrap;html=1;fontSize=12;glass=0;strokeWidth=1;shadow=0;" vertex="1" parent="WIyWlLk6GJQsqaUBKTNV-1">
          <mxGeometry x="179" y="287" width="120" height="40" as="geometry" />
        </mxCell>
        <mxCell id="R6aRdFvyjho4X6qCEHCf-20" value="cookie" style="rounded=1;whiteSpace=wrap;html=1;fontSize=12;glass=0;strokeWidth=1;shadow=0;" vertex="1" parent="WIyWlLk6GJQsqaUBKTNV-1">
          <mxGeometry x="330" y="287" width="120" height="40" as="geometry" />
        </mxCell>
        <mxCell id="R6aRdFvyjho4X6qCEHCf-23" value="&lt;font style=&quot;font-size: 10px&quot;&gt;nagle/tcp_no_delay/&lt;font color=&quot;#0abf5b&quot; face=&quot;consolas, liberation mono, menlo, courier, microsoft yahei, monospace&quot;&gt;&lt;span style=&quot;background-color: rgb(243 , 245 , 249)&quot;&gt;tcp_cork&lt;br&gt;&lt;/span&gt;&lt;/font&gt;&lt;/font&gt;" style="rounded=1;whiteSpace=wrap;html=1;fontSize=12;glass=0;strokeWidth=1;shadow=0;" vertex="1" parent="WIyWlLk6GJQsqaUBKTNV-1">
          <mxGeometry x="572" y="147" width="192" height="40" as="geometry" />
        </mxCell>
        <mxCell id="R6aRdFvyjho4X6qCEHCf-29" value="rmem" style="rounded=1;whiteSpace=wrap;html=1;fontSize=12;glass=0;strokeWidth=1;shadow=0;" vertex="1" parent="WIyWlLk6GJQsqaUBKTNV-1">
          <mxGeometry x="482" y="287" width="120" height="40" as="geometry" />
        </mxCell>
        <mxCell id="R6aRdFvyjho4X6qCEHCf-30" value="wmem" style="rounded=1;whiteSpace=wrap;html=1;fontSize=12;glass=0;strokeWidth=1;shadow=0;" vertex="1" parent="WIyWlLk6GJQsqaUBKTNV-1">
          <mxGeometry x="328" y="39" width="120" height="40" as="geometry" />
        </mxCell>
        <mxCell id="R6aRdFvyjho4X6qCEHCf-34" value="tcp_no_delay_ack" style="rounded=1;whiteSpace=wrap;html=1;fontSize=12;glass=0;strokeWidth=1;shadow=0;" vertex="1" parent="WIyWlLk6GJQsqaUBKTNV-1">
          <mxGeometry x="627" y="285" width="120" height="40" as="geometry" />
        </mxCell>
        <mxCell id="R6aRdFvyjho4X6qCEHCf-35" value="congestion" style="rounded=1;whiteSpace=wrap;html=1;fontSize=12;glass=0;strokeWidth=1;shadow=0;" vertex="1" parent="WIyWlLk6GJQsqaUBKTNV-1">
          <mxGeometry x="471" y="39" width="120" height="40" as="geometry" />
        </mxCell>
        <mxCell id="R6aRdFvyjho4X6qCEHCf-39" value="tcp_small_queue" style="rounded=1;whiteSpace=wrap;html=1;fontSize=12;glass=0;strokeWidth=1;shadow=0;" vertex="1" parent="WIyWlLk6GJQsqaUBKTNV-1">
          <mxGeometry x="651" y="43" width="120" height="40" as="geometry" />
        </mxCell>
      </root>
    </mxGraphModel>
  </diagram>
</mxfile>
